<svg width="25" height="24" viewBox="0 0 25 24" fill="none" xmlns="http://www.w3.org/2000/svg">
<path d="M23.5087 10.5C20.977 13.8435 16.9877 16 12.5 16C8.01228 16 4.02296 13.8435 1.49134 10.5C1.13032 10.9768 0.798949 11.4777 0.5 12C2.89531 16.1846 7.37231 19 12.5 19C17.6277 19 22.1047 16.1846 24.5 12C24.2011 11.4777 23.8697 10.9768 23.5087 10.5Z" fill="#797F99"/>
<path opacity="0.6" d="M22.8563 9.70126C20.3188 6.81703 16.6193 5 12.4999 5C8.38054 5 4.6811 6.81702 2.14355 9.70126C4.48629 12.9186 8.25509 15 12.4999 15C16.7448 15 20.5136 12.9186 22.8563 9.70126Z" fill="#797F99"/>
</svg>
