<svg width="19" height="19" viewBox="0 0 19 19" fill="none" xmlns="http://www.w3.org/2000/svg">
<path fill-rule="evenodd" clip-rule="evenodd" d="M12.9817 13.0625C15.5705 10.4737 15.5705 6.27634 12.9817 3.68751C10.3928 1.09867 6.1955 1.09867 3.60667 3.68751C1.01783 6.27634 1.01783 10.4737 3.60667 13.0625C6.1955 15.6513 10.3928 15.6513 12.9817 13.0625ZM11.8098 11.8906C13.7514 9.94901 13.7514 6.80101 11.8098 4.85938C9.86816 2.91775 6.72017 2.91775 4.77854 4.85938C2.83691 6.80101 2.83691 9.94901 4.77854 11.8906C6.72017 13.8323 9.86816 13.8323 11.8098 11.8906Z" fill="#A6A9BC"/>
<path opacity="0.6" d="M12.9814 14.2344L14.1533 13.0625L16.4971 15.4063C16.8207 15.7299 16.8207 16.2545 16.4971 16.5781C16.1735 16.9017 15.6488 16.9017 15.3252 16.5781L12.9814 14.2344Z" fill="#A6A9BC"/>
</svg>